<?xml version="1.0" standalone="no"?>
<!DOCTYPE svg PUBLIC "-//W3C//DTD SVG 20010904//EN"
 "http://www.w3.org/TR/2001/REC-SVG-20010904/DTD/svg10.dtd">
<svg version="1.0" xmlns="http://www.w3.org/2000/svg"
 width="66.000000pt" height="69.000000pt" viewBox="0 0 66.000000 69.000000"
 preserveAspectRatio="xMidYMid meet">

<g transform="translate(0.000000,69.000000) scale(0.100000,-0.100000)"
fill="#027056" stroke="none">
<path d="M250 681 c-75 -23 -130 -77 -130 -127 0 -24 23 -34 77 -34 25 0 35 6
45 27 15 32 54 49 91 39 18 -4 29 -17 37 -41 18 -53 10 -61 -65 -68 -118 -11
-185 -60 -201 -145 -10 -52 5 -103 41 -139 30 -30 38 -33 95 -33 64 0 90 9
128 43 l23 21 25 -32 c14 -18 30 -32 36 -32 6 0 31 16 55 36 l44 36 -18 27
c-15 21 -19 54 -23 178 -6 173 -13 191 -90 231 -45 23 -119 28 -170 13z m130
-293 c0 -39 -20 -98 -41 -119 -23 -23 -62 -25 -83 -3 -17 16 -21 80 -8 101 13
20 65 43 100 43 27 0 32 -4 32 -22z"/>
<path d="M555 135 l-30 -13 49 -1 c47 -1 48 -2 44 -28 -3 -16 -9 -37 -13 -48
-8 -20 -8 -20 13 -1 27 24 40 85 21 97 -20 12 -49 10 -84 -6z"/>
<path d="M25 104 c95 -79 248 -118 377 -96 77 13 178 58 186 81 4 11 0 12 -14
6 -144 -62 -355 -58 -509 10 -71 31 -78 31 -40 -1z"/>
</g>
</svg>
