<svg xmlns="http://www.w3.org/2000/svg" width="79" height="78" viewBox="0 0 79 78" fill="none">
<rect x="0.5" width="78" height="78" rx="39" fill="#E6EFEA"/>
<rect x="1" y="0.5" width="77" height="77" rx="38.5" stroke="#027056" stroke-opacity="0.12"/>
<g clip-path="url(#clip0_963_27314)">
<path d="M49 51H37V43H35V51H29V43H27V51C27 51.5304 27.2107 52.0391 27.5858 52.4142C27.9609 52.7893 28.4696 53 29 53H49C49.5304 53 50.0391 52.7893 50.4142 52.4142C50.7893 52.0391 51 51.5304 51 51V43H49V51Z" fill="#027056"/>
<path d="M54.79 34.27L50.71 26.11C50.5444 25.7768 50.2892 25.4964 49.973 25.3003C49.6568 25.1042 49.2921 25.0002 48.92 25H29.08C28.7079 25.0002 28.3433 25.1042 28.0271 25.3003C27.7108 25.4964 27.4556 25.7768 27.29 26.11L23.21 34.27C23.0707 34.5495 22.9988 34.8577 23 35.17V38.25C22.9991 38.7173 23.1619 39.1702 23.46 39.53C23.9007 40.0351 24.4449 40.4395 25.0557 40.7156C25.6666 40.9916 26.3297 41.133 27 41.13C28.0938 41.1317 29.1542 40.7535 30 40.06C30.8458 40.7539 31.906 41.1331 33 41.1331C34.094 41.1331 35.1542 40.7539 36 40.06C36.8458 40.7539 37.906 41.1331 39 41.1331C40.094 41.1331 41.1542 40.7539 42 40.06C42.8458 40.7539 43.906 41.1331 45 41.1331C46.094 41.1331 47.1542 40.7539 48 40.06C48.9442 40.8352 50.1521 41.2142 51.3699 41.1172C52.5877 41.0202 53.7204 40.4549 54.53 39.54C54.8318 39.1816 54.9981 38.7285 55 38.26V35.17C55.0012 34.8577 54.9293 34.5495 54.79 34.27ZM36 35.4V36.92L35.18 38C34.9283 38.3431 34.5993 38.6221 34.2197 38.8144C33.8401 39.0067 33.4206 39.1069 32.995 39.1069C32.5695 39.1069 32.1499 39.0067 31.7703 38.8144C31.3907 38.6221 31.0617 38.3431 30.81 38L30 36.88V35.4L32.59 27H37L36 35.4ZM48 36.88L47.19 38C46.9383 38.3431 46.6093 38.6221 46.2297 38.8144C45.8501 39.0067 45.4305 39.1069 45.005 39.1069C44.5795 39.1069 44.1599 39.0067 43.7803 38.8144C43.4007 38.6221 43.0717 38.3431 42.82 38L42 36.88V35.4L41 27H45.45L48 35.4V36.88Z" fill="#027056"/>
</g>
<defs>
<clipPath id="clip0_963_27314">
<rect width="36" height="36" fill="white" transform="translate(21 21)"/>
</clipPath>
</defs>
</svg>