<?xml version="1.0" standalone="no"?>
<!DOCTYPE svg PUBLIC "-//W3C//DTD SVG 20010904//EN"
 "http://www.w3.org/TR/2001/REC-SVG-20010904/DTD/svg10.dtd">
<svg version="1.0" xmlns="http://www.w3.org/2000/svg"
 width="74.000000pt" height="69.000000pt" viewBox="0 0 74.000000 69.000000"
 preserveAspectRatio="xMidYMid meet">

<g transform="translate(0.000000,69.000000) scale(0.100000,-0.100000)"
fill="#027056" stroke="none">
<path d="M73 680 c-15 -6 -23 -18 -23 -34 0 -16 -9 -32 -25 -42 l-25 -16 0
-282 c0 -206 3 -285 12 -294 8 -8 63 -12 179 -12 186 0 171 -6 185 73 l6 37
-93 1 c-119 2 -187 16 -84 18 65 1 79 12 30 24 -15 3 -13 5 8 6 44 2 21 21
-26 22 -85 1 -4 18 91 18 65 1 94 5 96 14 2 6 9 31 15 55 15 54 71 117 117
132 50 17 124 16 135 -1 5 -8 8 -25 7 -39 -3 -21 -9 -26 -45 -31 -51 -6 -80
-30 -93 -78 -16 -57 -14 -61 30 -61 34 0 40 -3 40 -21 0 -41 -18 -59 -59 -59
-37 0 -39 -2 -45 -37 -4 -21 -9 -46 -12 -55 -5 -16 5 -18 108 -18 75 0 118 4
126 12 9 9 12 88 12 294 l0 282 -25 16 c-16 10 -25 26 -25 41 0 18 -8 28 -26
35 -32 13 -561 12 -591 0z m152 -159 c12 -54 73 -93 144 -93 83 1 141 39 141
92 0 24 4 30 21 30 17 0 19 -4 13 -22 -22 -72 -66 -110 -140 -123 -82 -13
-171 33 -200 102 -17 40 -17 43 0 43 8 0 17 -13 21 -29z"/>
</g>
</svg>
