<?xml version="1.0" standalone="no"?>
<!DOCTYPE svg PUBLIC "-//W3C//DTD SVG 20010904//EN"
 "http://www.w3.org/TR/2001/REC-SVG-20010904/DTD/svg10.dtd">
<svg version="1.0" xmlns="http://www.w3.org/2000/svg"
 width="74.000000pt" height="69.000000pt" viewBox="0 0 74.000000 69.000000"
 preserveAspectRatio="xMidYMid meet">

<g transform="translate(0.000000,69.000000) scale(0.100000,-0.100000)"
fill="#027056" stroke="none">
<path d="M314 675 c-26 -13 -58 -64 -173 -268 -152 -271 -158 -289 -118 -348
26 -39 60 -59 102 -59 57 0 86 30 165 169 40 72 77 131 80 131 3 0 39 -59 79
-131 78 -138 108 -169 166 -169 69 0 134 77 121 143 -8 38 -261 489 -291 517
-30 28 -91 35 -131 15z"/>
</g>
</svg>
