<svg xmlns="http://www.w3.org/2000/svg" width="395" height="108" viewBox="0 0 395 108" fill="none">
<path d="M37.6288 87.6586C32.3708 84.5326 23.6978 84.2452 18.6784 85.7703C17.8723 86.015 17.02 85.5595 16.7757 84.7526C16.5315 83.9453 16.9861 83.0925 17.7927 82.8472C23.5547 81.0961 33.133 81.4344 39.1861 85.0316C39.9113 85.4624 40.1492 86.3998 39.7193 87.1246C39.2892 87.8503 38.3521 88.0895 37.6288 87.6586ZM37.4566 92.2887C37.0879 92.8881 36.3053 93.0758 35.7075 92.7081C31.3238 90.0105 24.6393 89.2291 19.4532 90.805C18.7807 91.0084 18.0703 90.6289 17.8661 89.9568C17.6634 89.2835 18.0428 88.5737 18.7141 88.3689C24.6386 86.5692 32.0034 87.4409 37.0382 90.5384C37.636 90.907 37.8242 91.6909 37.4566 92.2887ZM35.4607 96.7354C35.1677 97.2165 34.5417 97.3674 34.0629 97.0741C30.2323 94.7305 25.411 94.201 19.733 95.4995C19.1858 95.6251 18.6406 95.2817 18.5157 94.7341C18.3904 94.1864 18.732 93.6406 19.2804 93.5156C25.494 92.0935 30.824 92.7056 35.1235 95.3357C35.6029 95.6287 35.7538 96.2557 35.4607 96.7354ZM27.9799 73.1818C18.9713 73.1818 11.668 80.4928 11.668 89.5115C11.668 98.531 18.9713 105.842 27.9799 105.842C36.989 105.842 44.2918 98.531 44.2918 89.5115C44.2918 80.4928 36.989 73.1818 27.9799 73.1818Z" fill="white"/>
<path d="M56.047 88.2568C53.2306 87.5844 52.7291 87.1125 52.7291 86.1211C52.7291 85.1842 53.6103 84.5539 54.9204 84.5539C56.1904 84.5539 57.4495 85.0327 58.7699 86.0182C58.8098 86.048 58.8599 86.0599 58.9092 86.0521C58.9585 86.0447 59.0019 86.0178 59.0309 85.9768L60.4061 84.0362C60.4626 83.9564 60.4472 83.8461 60.371 83.785C58.7997 82.5228 57.0303 81.9091 54.9621 81.9091C51.9211 81.9091 49.797 83.7359 49.797 86.3501C49.797 89.1533 51.6293 90.1457 54.7957 90.9119C57.4908 91.5334 57.9456 92.0539 57.9456 92.9848C57.9456 94.0161 57.0258 94.6574 55.5456 94.6574C53.9019 94.6574 52.5608 94.103 51.0607 92.8025C51.0235 92.7705 50.9725 92.7557 50.9253 92.7584C50.8759 92.7625 50.8305 92.7855 50.7989 92.8235L49.257 94.6606C49.1923 94.7369 49.2005 94.8508 49.2751 94.9166C51.0206 96.4765 53.1669 97.3005 55.4833 97.3005C58.7602 97.3005 60.8777 95.5079 60.8777 92.7336C60.8777 90.389 59.4783 89.0923 56.047 88.2568Z" fill="white"/>
<path d="M70.6702 91.3989C70.6702 93.3788 69.452 94.7603 67.7077 94.7603C65.9833 94.7603 64.6825 93.316 64.6825 91.3989C64.6825 89.4821 65.9833 88.0375 67.7077 88.0375C69.4239 88.0375 70.6702 89.4509 70.6702 91.3989ZM68.2915 85.4757C66.8711 85.4757 65.7061 86.0358 64.7454 87.1834V85.8917C64.7454 85.7897 64.6628 85.7066 64.5609 85.7066H62.0392C61.9374 85.7066 61.855 85.7897 61.855 85.8917V100.244C61.855 100.346 61.9374 100.429 62.0392 100.429H64.5609C64.6628 100.429 64.7454 100.346 64.7454 100.244V95.7139C65.7063 96.7934 66.8715 97.3207 68.2915 97.3207C70.9306 97.3207 73.6023 95.2868 73.6023 91.3989C73.6023 87.5101 70.9306 85.4757 68.2915 85.4757Z" fill="white"/>
<path d="M80.4507 94.7808C78.6429 94.7808 77.28 93.3266 77.28 91.3986C77.28 89.4626 78.5957 88.0576 80.409 88.0576C82.2285 88.0576 83.6005 89.5116 83.6005 91.4409C83.6005 93.3768 82.2758 94.7808 80.4507 94.7808ZM80.4507 85.4755C77.0519 85.4755 74.3892 88.0956 74.3892 91.4409C74.3892 94.7499 77.0336 97.3425 80.409 97.3425C83.8199 97.3425 86.4908 94.7313 86.4908 91.3986C86.4908 88.0772 83.8382 85.4755 80.4507 85.4755Z" fill="white"/>
<path d="M93.7484 85.7079H90.9734V82.8675C90.9734 82.7656 90.8912 82.6827 90.7893 82.6827H88.2678C88.1657 82.6827 88.0827 82.7656 88.0827 82.8675V85.7079H86.8702C86.7685 85.7079 86.6865 85.791 86.6865 85.893V88.0627C86.6865 88.1646 86.7685 88.2477 86.8702 88.2477H88.0827V93.8621C88.0827 96.131 89.2107 97.2812 91.4354 97.2812C92.34 97.2812 93.0905 97.0942 93.7977 96.6928C93.8552 96.6606 93.891 96.5986 93.891 96.5326V94.4665C93.891 94.4026 93.8577 94.3426 93.8034 94.3091C93.7484 94.2746 93.6801 94.2728 93.6238 94.3007C93.138 94.5454 92.6684 94.6583 92.1434 94.6583C91.3345 94.6583 90.9734 94.2907 90.9734 93.4665V88.2477H93.7484C93.8503 88.2477 93.9323 88.1646 93.9323 88.0627V85.893C93.9323 85.791 93.8503 85.7079 93.7484 85.7079Z" fill="white"/>
<path d="M103.417 85.7182V85.3693C103.417 84.3431 103.81 83.8854 104.691 83.8854C105.217 83.8854 105.639 83.9899 106.112 84.1479C106.171 84.1662 106.231 84.157 106.279 84.1221C106.327 84.0872 106.355 84.0312 106.355 83.972V81.8445C106.355 81.7632 106.303 81.6912 106.225 81.6674C105.725 81.5187 105.086 81.3658 104.128 81.3658C101.799 81.3658 100.568 82.6789 100.568 85.1619V85.6962H99.3564C99.2548 85.6962 99.1714 85.779 99.1714 85.881V88.0619C99.1714 88.1638 99.2548 88.2468 99.3564 88.2468H100.568V96.9068C100.568 97.0088 100.65 97.0917 100.752 97.0917H103.274C103.375 97.0917 103.458 97.0088 103.458 96.9068V88.2468H105.813L109.42 96.9045C109.01 97.8141 108.608 97.9951 108.058 97.9951C107.614 97.9951 107.146 97.8623 106.667 97.6003C106.622 97.5754 106.569 97.5714 106.521 97.5864C106.473 97.6035 106.432 97.6393 106.412 97.6863L105.557 99.5635C105.516 99.6522 105.551 99.7564 105.636 99.8024C106.528 100.286 107.334 100.493 108.329 100.493C110.192 100.493 111.221 99.6242 112.128 97.288L116.503 85.9701C116.525 85.9132 116.519 85.849 116.484 85.7983C116.449 85.7484 116.393 85.7182 116.332 85.7182H113.707C113.628 85.7182 113.558 85.7681 113.532 85.842L110.843 93.5325L107.897 85.837C107.87 85.7654 107.801 85.7182 107.725 85.7182H103.417Z" fill="white"/>
<path d="M97.8125 85.7075H95.2906C95.1887 85.7075 95.106 85.7905 95.106 85.8925V96.9072C95.106 97.0092 95.1887 97.092 95.2906 97.092H97.8125C97.9142 97.092 97.9971 97.0092 97.9971 96.9072V85.8925C97.9971 85.7905 97.9142 85.7075 97.8125 85.7075Z" fill="white"/>
<path d="M96.5637 80.6916C95.5648 80.6916 94.7539 81.5014 94.7539 82.5014C94.7539 83.5021 95.5648 84.3127 96.5637 84.3127C97.5623 84.3127 98.3722 83.5021 98.3722 82.5014C98.3722 81.5014 97.5623 80.6916 96.5637 80.6916Z" fill="white"/>
<path d="M118.76 86.8035H118.298V87.3934H118.76C118.99 87.3934 119.128 87.2804 119.128 87.0983C119.128 86.9064 118.99 86.8035 118.76 86.8035ZM119.059 87.645L119.561 88.3487H119.138L118.686 87.7033H118.298V88.3487H117.943V86.4836H118.774C119.207 86.4836 119.492 86.7053 119.492 87.0785C119.492 87.3842 119.315 87.571 119.059 87.645ZM118.666 85.8631C117.757 85.8631 117.069 86.5863 117.069 87.4724C117.069 88.3578 117.752 89.0715 118.657 89.0715C119.565 89.0715 120.254 88.3487 120.254 87.4623C120.254 86.5768 119.57 85.8631 118.666 85.8631ZM118.657 89.2493C117.658 89.2493 116.882 88.4468 116.882 87.4724C116.882 86.4978 117.669 85.6862 118.666 85.6862C119.664 85.6862 120.441 86.4887 120.441 87.4623C120.441 88.4368 119.654 89.2493 118.657 89.2493Z" fill="white"/>
<g clip-path="url(#clip0_412_4575)">
<path d="M166.68 75.0067V100.061L169.903 100.071V88.1398H177.676V84.9861H169.903V78.1588H180.026V75.0051L166.68 75.0067Z" fill="white"/>
<path d="M185.829 80.0936C186.99 80.0936 187.931 79.1523 187.931 77.9911C187.931 76.83 186.99 75.8887 185.829 75.8887C184.667 75.8887 183.726 76.83 183.726 77.9911C183.726 79.1523 184.667 80.0936 185.829 80.0936Z" fill="white"/>
<path d="M184.189 83.2456V100.065H187.413V83.2456H184.189Z" fill="white"/>
<path fill-rule="evenodd" clip-rule="evenodd" d="M199.37 82.7566C195.089 82.7566 192.101 86.3772 192.101 90.6758C192.101 94.9745 195.089 98.5951 199.37 98.5951C201.329 98.5951 202.945 97.8363 204.12 96.6011V98.8404C204.12 101.627 201.931 103.956 199.074 103.956C198.047 103.956 197.027 103.558 196.214 102.998L194.599 105.796C195.889 106.627 197.425 107.11 199.074 107.11C203.642 107.11 207.344 103.408 207.344 98.8404V83.2472H204.12V84.7506C202.945 83.5154 201.329 82.7566 199.37 82.7566ZM195.325 90.6758C195.325 88.0075 197.366 85.9103 199.72 85.9103C202.074 85.9103 204.115 88.0075 204.115 90.6758C204.115 93.3441 202.074 95.4414 199.72 95.4414C197.366 95.4414 195.325 93.3441 195.325 90.6758Z" fill="white"/>
<path d="M218.96 85.9103C217.054 85.9103 215.508 87.5256 215.508 89.4318V100.067H212.285V83.2472H215.508V84.7879C216.453 83.5669 217.845 82.7566 219.661 82.7566C221.92 82.7566 223.653 83.8786 224.658 85.5956C225.774 83.9371 227.595 82.7566 229.788 82.7566C233.457 82.7566 235.741 85.7168 235.762 89.3793C235.762 89.3903 235.762 89.4014 235.762 89.4126V89.4132V89.4137V89.4143C235.762 89.4202 235.762 89.426 235.762 89.4318V100.067H232.538V89.4318C232.538 87.5256 230.993 85.9103 229.087 85.9103C227.18 85.9103 225.635 87.5256 225.635 89.4318V100.067H222.412V89.4318C222.412 87.5256 220.866 85.9103 218.96 85.9103Z" fill="white"/>
<path fill-rule="evenodd" clip-rule="evenodd" d="M252.932 85.1538C251.498 83.6729 249.533 82.7566 247.255 82.7566C242.459 82.7566 239.056 86.8172 239.056 91.6569C239.056 96.4967 242.459 100.557 247.255 100.557C249.533 100.557 251.498 99.6411 252.932 98.1601V100.067H256.156V83.2472H252.932V85.1538ZM242.279 91.6569C242.279 88.4461 244.738 85.9103 247.606 85.9103C250.473 85.9103 252.932 88.4461 252.932 91.6569C252.932 94.8679 250.473 97.4037 247.606 97.4037C244.738 97.4037 242.279 94.8679 242.279 91.6569Z" fill="white"/>
</g>
<g clip-path="url(#clip1_412_4575)">
<path d="M352.679 82.8834C352.679 83.8937 351.869 84.7076 350.862 84.7076C349.856 84.7076 349.046 83.8937 349.046 82.8834C349.046 81.8731 349.828 81.0593 350.862 81.0593C351.897 81.0873 352.679 81.9012 352.679 82.8834ZM345.188 86.5598C345.188 86.7282 345.188 87.0088 345.188 87.0088C345.188 87.0088 344.322 85.8863 342.477 85.8863C339.43 85.8863 337.054 88.2156 337.054 91.4429C337.054 94.6422 339.402 96.9996 342.477 96.9996C344.35 96.9996 345.188 95.849 345.188 95.849V96.3261C345.188 96.5506 345.356 96.719 345.579 96.719H347.844V86.1669C347.844 86.1669 345.775 86.1669 345.579 86.1669C345.356 86.1669 345.188 86.3634 345.188 86.5598ZM345.188 93.3232C344.769 93.9406 343.93 94.4738 342.924 94.4738C341.135 94.4738 339.765 93.3513 339.765 91.4429C339.765 89.5346 341.135 88.412 342.924 88.412C343.902 88.412 344.797 88.9733 345.188 89.5626V93.3232ZM349.521 86.1669H352.204V96.719H349.521V86.1669ZM389.605 85.8863C387.76 85.8863 386.893 87.0088 386.893 87.0088V81.0873H384.21V96.719C384.21 96.719 386.278 96.719 386.474 96.719C386.698 96.719 386.865 96.5225 386.865 96.3261V95.849C386.865 95.849 387.732 96.9996 389.577 96.9996C392.624 96.9996 395 94.6422 395 91.4429C395 88.2436 392.624 85.8863 389.605 85.8863ZM389.158 94.4458C388.123 94.4458 387.313 93.9126 386.893 93.2952V89.5346C387.313 88.9733 388.207 88.384 389.158 88.384C390.947 88.384 392.316 89.5065 392.316 91.4149C392.316 93.3232 390.947 94.4458 389.158 94.4458ZM382.812 90.4607V96.747H380.129V90.7694C380.129 89.0294 379.57 88.3278 378.06 88.3278C377.25 88.3278 376.411 88.7488 375.88 89.3662V96.719H373.197V86.1669H375.321C375.545 86.1669 375.712 86.3634 375.712 86.5598V87.0088C376.495 86.195 377.529 85.8863 378.564 85.8863C379.738 85.8863 380.716 86.223 381.499 86.8966C382.449 87.6824 382.812 88.6927 382.812 90.4607ZM366.684 85.8863C364.839 85.8863 363.972 87.0088 363.972 87.0088V81.0873H361.289V96.719C361.289 96.719 363.357 96.719 363.553 96.719C363.777 96.719 363.944 96.5225 363.944 96.3261V95.849C363.944 95.849 364.811 96.9996 366.656 96.9996C369.703 96.9996 372.079 94.6422 372.079 91.4429C372.106 88.2436 369.731 85.8863 366.684 85.8863ZM366.236 94.4458C365.202 94.4458 364.392 93.9126 363.972 93.2952V89.5346C364.392 88.9733 365.286 88.384 366.236 88.384C368.025 88.384 369.395 89.5065 369.395 91.4149C369.395 93.3232 368.025 94.4458 366.236 94.4458ZM358.969 85.8863C359.779 85.8863 360.199 86.0266 360.199 86.0266V88.5243C360.199 88.5243 357.962 87.7666 356.565 89.3662V96.747H353.881V86.1669C353.881 86.1669 355.95 86.1669 356.146 86.1669C356.369 86.1669 356.537 86.3634 356.537 86.5598V87.0088C357.04 86.4195 358.13 85.8863 358.969 85.8863ZM331.1 95.7648C330.96 95.428 330.82 95.0632 330.681 94.7545C330.457 94.2493 330.233 93.7722 330.038 93.3232L330.01 93.2952C328.081 89.0856 326.013 84.8198 323.832 80.6102L323.748 80.4418C323.525 80.0209 323.301 79.5719 323.078 79.1228C322.798 78.6177 322.519 78.0845 322.071 77.5793C321.177 76.4568 319.891 75.8394 318.521 75.8394C317.124 75.8394 315.866 76.4568 314.943 77.5232C314.524 78.0283 314.217 78.5616 313.937 79.0667C313.713 79.5157 313.49 79.9648 313.266 80.3857L313.182 80.5541C311.03 84.7637 308.934 89.0294 307.005 93.239L306.977 93.2952C306.781 93.7442 306.558 94.2213 306.334 94.7264C306.194 95.0351 306.054 95.3719 305.915 95.7367C305.551 96.7751 305.439 97.7573 305.579 98.7676C305.887 100.872 307.284 102.64 309.213 103.426C309.94 103.735 310.695 103.875 311.477 103.875C311.701 103.875 311.98 103.847 312.204 103.819C313.126 103.707 314.077 103.398 314.999 102.865C316.145 102.22 317.235 101.293 318.465 99.9463C319.695 101.293 320.813 102.22 321.932 102.865C322.854 103.398 323.804 103.707 324.727 103.819C324.95 103.847 325.23 103.875 325.454 103.875C326.236 103.875 327.019 103.735 327.718 103.426C329.674 102.64 331.044 100.844 331.352 98.7676C331.575 97.7854 331.463 96.8032 331.1 95.7648ZM318.493 97.2241C316.984 95.3158 316.006 93.5197 315.67 92.0042C315.53 91.3587 315.502 90.7975 315.586 90.2923C315.642 89.8433 315.81 89.4504 316.034 89.1136C316.565 88.3559 317.459 87.8788 318.493 87.8788C319.528 87.8788 320.45 88.3278 320.953 89.1136C321.177 89.4504 321.345 89.8433 321.4 90.2923C321.484 90.7975 321.456 91.3868 321.317 92.0042C320.981 93.4916 320.003 95.2877 318.493 97.2241ZM329.646 98.5431C329.451 100.002 328.472 101.265 327.103 101.827C326.432 102.107 325.705 102.191 324.978 102.107C324.28 102.023 323.581 101.799 322.854 101.378C321.848 100.816 320.841 99.9463 319.667 98.6554C321.512 96.3822 322.63 94.3055 323.05 92.4532C323.245 91.5833 323.273 90.7975 323.189 90.0678C323.078 89.3662 322.826 88.7207 322.435 88.1594C321.568 86.8966 320.115 86.1669 318.493 86.1669C316.872 86.1669 315.419 86.9246 314.552 88.1594C314.161 88.7207 313.909 89.3662 313.797 90.0678C313.685 90.7975 313.713 91.6113 313.937 92.4532C314.356 94.3055 315.502 96.4103 317.319 98.6834C316.173 99.9744 315.139 100.844 314.133 101.406C313.406 101.827 312.707 102.051 312.008 102.135C311.254 102.22 310.527 102.107 309.884 101.855C308.514 101.293 307.536 100.031 307.34 98.5712C307.256 97.8696 307.312 97.168 307.592 96.3822C307.676 96.1016 307.815 95.8209 307.955 95.4841C308.151 95.0351 308.374 94.558 308.598 94.0809L308.626 94.0248C310.555 89.8433 312.623 85.5776 314.776 81.4241L314.86 81.2557C315.083 80.8347 315.307 80.3857 315.53 79.9648C315.754 79.5157 316.006 79.0948 316.313 78.7299C316.9 78.0564 317.683 77.6916 318.549 77.6916C319.416 77.6916 320.198 78.0564 320.785 78.7299C321.093 79.0948 321.345 79.5157 321.568 79.9648C321.792 80.3857 322.015 80.8347 322.239 81.2557L322.323 81.4241C324.447 85.6056 326.516 89.8714 328.444 94.0529V94.0809C328.668 94.53 328.864 95.0351 329.087 95.4841C329.227 95.8209 329.367 96.1016 329.451 96.3822C329.674 97.1119 329.758 97.8135 329.646 98.5431Z" fill="white"/>
</g>
<path fill-rule="evenodd" clip-rule="evenodd" d="M243.607 29.0196C243.607 23.7852 241.079 19.655 236.245 19.655C231.392 19.655 228.455 23.7852 228.455 28.9787C228.455 35.1331 231.922 38.241 236.898 38.241C239.325 38.241 241.16 37.689 242.547 36.912V32.8227C241.16 33.5178 239.57 33.9472 237.551 33.9472C235.572 33.9472 233.819 33.252 233.594 30.8393H243.567C243.567 30.5735 243.607 29.5103 243.607 29.0196ZM233.533 27.0772C233.533 24.7667 234.94 23.8057 236.225 23.8057C237.469 23.8057 238.795 24.7667 238.795 27.0772H233.533Z" fill="white"/>
<path fill-rule="evenodd" clip-rule="evenodd" d="M220.583 19.655C218.585 19.655 217.3 20.5956 216.586 21.2499L216.321 19.9822H211.834V43.8229L216.933 42.7393L216.953 36.9529C217.687 37.4845 218.768 38.241 220.563 38.241C224.213 38.241 227.537 35.2967 227.537 28.8151C227.517 22.8856 224.152 19.655 220.583 19.655ZM219.36 33.7428C218.156 33.7428 217.443 33.3134 216.953 32.7818L216.933 25.1961C217.463 24.6031 218.197 24.1942 219.36 24.1942C221.215 24.1942 222.5 26.2797 222.5 28.9582C222.5 31.6981 221.236 33.7428 219.36 33.7428Z" fill="white"/>
<path fill-rule="evenodd" clip-rule="evenodd" d="M204.819 18.4491L209.938 17.345V13.1943L204.819 14.278V18.4491Z" fill="white"/>
<path d="M209.938 20.0032H204.819V37.894H209.938V20.0032Z" fill="white"/>
<path fill-rule="evenodd" clip-rule="evenodd" d="M199.333 21.5171L199.007 20.0041H194.602V37.8949H199.7V25.77C200.904 24.1956 202.943 24.4819 203.575 24.7068V20.0041C202.923 19.7587 200.537 19.3089 199.333 21.5171Z" fill="white"/>
<path fill-rule="evenodd" clip-rule="evenodd" d="M189.137 15.5676L184.161 16.6309L184.141 33.0086C184.141 36.0347 186.404 38.2634 189.423 38.2634C191.095 38.2634 192.318 37.9567 192.991 37.5887V33.438C192.339 33.7038 189.117 34.6443 189.117 31.6182V24.3597H192.991V20.0045H189.117L189.137 15.5676Z" fill="white"/>
<path fill-rule="evenodd" clip-rule="evenodd" d="M175.351 25.1961C175.351 24.3986 176.004 24.0919 177.084 24.0919C178.634 24.0919 180.592 24.5622 182.142 25.4005V20.5956C180.449 19.9208 178.777 19.655 177.084 19.655C172.945 19.655 170.191 21.8224 170.191 25.4414C170.191 31.0847 177.941 30.185 177.941 32.6182C177.941 33.5587 177.125 33.8654 175.983 33.8654C174.29 33.8654 172.129 33.1703 170.416 32.2297V37.096C172.312 37.9139 174.229 38.2615 175.983 38.2615C180.225 38.2615 183.141 36.1555 183.141 32.4955C183.121 26.4024 175.351 27.4861 175.351 25.1961Z" fill="white"/>
<g clip-path="url(#clip2_412_4575)">
<path d="M50.4648 18.425H53.8289L59.549 28.7509L65.269 18.4251H68.5602V35.3924H65.8156V22.3882L60.7999 31.393H58.2252L53.2095 22.3882V35.3924H50.4648V18.425Z" fill="white"/>
<path d="M77.4138 35.6957C76.1426 35.6957 75.0253 35.4149 74.0619 34.8534C73.0983 34.2918 72.3474 33.5142 71.8091 32.5204C71.2706 31.5265 71.0014 30.3873 71.0015 29.1027C71.0015 27.8019 71.2646 26.6505 71.7909 25.6486C72.3171 24.6469 73.0478 23.8631 73.983 23.2973C74.9181 22.7319 75.9929 22.4491 77.2073 22.449C78.4136 22.449 79.452 22.7338 80.3224 23.3034C81.1926 23.8731 81.8626 24.671 82.3323 25.697C82.8018 26.7232 83.0366 27.9271 83.0367 29.3087V30.06H73.7218C73.8919 31.0944 74.3109 31.9084 74.9788 32.5021C75.6468 33.096 76.4908 33.3929 77.5109 33.3929C78.3286 33.3929 79.033 33.2717 79.6241 33.0293C80.215 32.7869 80.7696 32.4193 81.2879 31.9265L82.7452 33.708C81.2958 35.0332 79.5187 35.6958 77.4138 35.6957ZM79.4176 25.6303C78.8427 25.0446 78.0897 24.7517 77.1588 24.7516C76.2519 24.7516 75.4929 25.0506 74.8817 25.6486C74.2703 26.2465 73.8837 27.0504 73.7218 28.0604H80.4014C80.3203 27.0261 79.9924 26.2161 79.4176 25.6303Z" fill="white"/>
<path d="M86.3635 24.9949H83.8374V22.7527H86.3635V19.0442H89.011V22.7527H92.8486V24.9949H89.011V30.6789C89.011 31.6241 89.1729 32.2987 89.4968 32.7028C89.8205 33.1069 90.3751 33.3089 91.1606 33.3087C91.5086 33.3087 91.8041 33.2946 92.0472 33.2663C92.29 33.2382 92.5572 33.1998 92.8486 33.1512V35.369C92.5161 35.465 92.1772 35.538 91.8346 35.5873C91.4425 35.6448 91.0467 35.6732 90.6505 35.6721C87.7924 35.6721 86.3634 34.1127 86.3635 30.994V24.9949Z" fill="white"/>
<path d="M106.646 35.3926H104.047V33.6232C103.586 34.2858 102.999 34.7968 102.286 35.1563C101.574 35.5157 100.764 35.6955 99.8572 35.6957C98.7399 35.6957 97.7501 35.4108 96.8878 34.8411C96.0256 34.2716 95.3475 33.4879 94.8536 32.49C94.3597 31.4922 94.1128 30.3509 94.1128 29.0663C94.1128 27.7736 94.3638 26.6303 94.8658 25.6364C95.3677 24.6427 96.062 23.863 96.9486 23.2973C97.8351 22.7319 98.8532 22.4491 100.003 22.449C100.869 22.449 101.646 22.6167 102.335 22.952C103.014 23.2797 103.602 23.7687 104.047 24.376V22.752H106.646V35.3926ZM103.998 27.1756C103.715 26.4565 103.268 25.8889 102.656 25.4728C102.045 25.0567 101.339 24.8487 100.537 24.8487C99.4036 24.8487 98.5009 25.2284 97.8291 25.9879C97.1569 26.7474 96.8209 27.7735 96.8211 29.0663C96.8211 30.3672 97.1449 31.3974 97.7926 32.1568C98.4402 32.9163 99.3187 33.296 100.428 33.296C101.246 33.296 101.974 33.0859 102.614 32.6657C103.253 32.2458 103.715 31.6802 103.998 30.969V27.1756Z" fill="white"/>
<path d="M37.2047 17.8516C34.9977 17.8516 33.2724 19.5104 31.7106 21.6177C29.5644 18.8907 27.7696 17.8516 25.6216 17.8516C21.2425 17.8516 17.8872 23.5389 17.8872 29.5585C17.8872 33.3254 19.7134 35.7013 22.7721 35.7013C24.9736 35.7013 26.5569 34.6656 29.3716 29.7555C29.3716 29.7555 30.545 27.6878 31.3521 26.2634C31.635 26.7191 31.9329 27.2102 32.2458 27.7366L33.5657 29.9525C36.1369 34.2462 37.5694 35.7013 40.1653 35.7013C43.1451 35.7013 44.8034 33.293 44.8034 29.4477C44.8035 23.1449 41.3725 17.8516 37.2047 17.8516ZM27.2252 28.426C24.9432 31.9959 24.1537 32.7961 22.8831 32.7961C21.5755 32.7961 20.7984 31.6505 20.7984 29.6078C20.7984 25.2377 22.9818 20.7691 25.5846 20.7691C26.9941 20.7691 28.172 21.5814 29.9762 24.159C28.263 26.7813 27.2252 28.426 27.2252 28.426ZM35.8382 27.9766L34.26 25.35C33.8329 24.6569 33.4225 24.0189 33.0287 23.436C34.4511 21.2452 35.6243 20.1536 37.0197 20.1536C39.9186 20.1536 42.2377 24.4129 42.2377 29.6447C42.2377 31.639 41.5831 32.7961 40.227 32.7961C38.9271 32.7961 38.3062 31.9394 35.8382 27.9766Z" fill="white"/>
</g>
<g clip-path="url(#clip3_412_4575)">
<path d="M336.479 28.4315C335.717 28.0091 335.316 27.6671 335.316 27.1842C335.316 26.5606 335.857 26.1784 336.719 26.1784C337.722 26.1784 338.604 26.6008 338.604 26.6008L339.305 24.4483C339.305 24.4483 338.664 23.9453 336.759 23.9453C334.113 23.9453 332.268 25.4742 332.268 27.6067C332.268 28.8138 333.131 29.7392 334.273 30.403C335.196 30.9261 335.516 31.3083 335.516 31.8515C335.516 32.4349 335.055 32.8976 334.193 32.8976C332.91 32.8976 331.707 32.2337 331.707 32.2337L330.965 34.3863C330.965 34.3863 332.088 35.1307 333.953 35.1307C336.679 35.1307 338.624 33.7828 338.624 31.3687C338.664 30.0409 337.662 29.1155 336.479 28.4315Z" fill="white"/>
<path d="M347.345 23.9039C346.001 23.9039 344.959 24.5477 344.137 25.5133L344.097 25.4932L345.26 19.3774H342.212L339.265 34.9283H342.292L343.295 29.6173C343.696 27.6055 344.718 26.3784 345.681 26.3784C346.362 26.3784 346.623 26.8411 346.623 27.5049C346.623 27.9274 346.583 28.4303 346.483 28.8528L345.34 34.9484H348.367L349.55 28.6718C349.69 28.0079 349.771 27.2233 349.771 26.6801C349.811 24.9299 348.929 23.9039 347.345 23.9039Z" fill="white"/>
<path d="M356.667 23.9045C353.018 23.9045 350.592 27.2038 350.592 30.8853C350.592 33.2391 352.036 35.1503 354.762 35.1503C358.351 35.1503 360.757 31.9314 360.757 28.1695C360.777 25.9766 359.514 23.9045 356.667 23.9045ZM355.183 32.7965C354.141 32.7965 353.72 31.9113 353.72 30.8049C353.72 29.0546 354.622 26.2181 356.266 26.2181C357.349 26.2181 357.689 27.1435 357.689 28.0488C357.689 29.9398 356.787 32.7965 355.183 32.7965Z" fill="white"/>
<path d="M368.536 23.9045C366.491 23.9045 365.328 25.7151 365.328 25.7151H365.288L365.468 24.0856H362.782C362.641 25.1921 362.401 26.8618 362.16 28.1292L360.055 39.2341H363.082L363.925 34.7278H363.985C363.985 34.7278 364.606 35.1301 365.769 35.1301C369.338 35.1301 371.663 31.4687 371.663 27.7671C371.663 25.7352 370.761 23.9045 368.536 23.9045ZM365.649 32.8569C364.867 32.8569 364.406 32.4143 364.406 32.4143L364.907 29.5777C365.268 27.6866 366.25 26.4192 367.293 26.4192C368.215 26.4192 368.496 27.2843 368.496 28.089C368.496 30.0404 367.333 32.8569 365.649 32.8569Z" fill="white"/>
<path d="M375.994 19.5388C375.031 19.5388 374.25 20.3033 374.25 21.3092C374.25 22.2145 374.811 22.8381 375.673 22.8381H375.713C376.655 22.8381 377.477 22.1943 377.497 21.0678C377.517 20.1625 376.916 19.5388 375.994 19.5388Z" fill="white"/>
<path d="M371.744 34.9295H374.792L376.857 24.1465H373.789L371.744 34.9295Z" fill="white"/>
<path d="M384.555 24.1254H382.45L382.55 23.6225C382.73 22.5764 383.332 21.651 384.354 21.651C384.896 21.651 385.317 21.8119 385.317 21.8119L385.918 19.438C385.918 19.438 385.397 19.1765 384.274 19.1765C383.191 19.1765 382.129 19.4783 381.307 20.1824C380.264 21.0676 379.783 22.335 379.543 23.6225L379.462 24.1254H378.059L377.618 26.4188H379.021L377.417 34.9286H380.445L382.049 26.4188H384.134L384.555 24.1254Z" fill="white"/>
<path d="M391.852 24.1465C391.852 24.1465 389.948 28.9345 389.106 31.5497H389.066C389.005 30.7048 388.324 24.1465 388.324 24.1465H385.136L386.96 34.0443C387.001 34.2656 386.981 34.4064 386.9 34.5473C386.539 35.2313 385.958 35.8951 385.256 36.378C384.695 36.8004 384.053 37.062 383.552 37.243L384.394 39.8181C385.016 39.6772 386.279 39.1743 387.361 38.1684C388.745 36.8608 390.028 34.8691 391.331 32.1332L395.04 24.1465H391.852Z" fill="white"/>
<path d="M320.519 17.1457C320.519 17.1457 320.238 17.2262 319.777 17.367C319.697 17.1055 319.577 16.8037 319.416 16.4818C318.895 15.476 318.113 14.9328 317.191 14.9328C317.131 14.9328 317.071 14.9328 316.991 14.9529C316.971 14.9127 316.93 14.8925 316.91 14.8523C316.509 14.4097 315.988 14.2085 315.367 14.2287C314.164 14.2689 312.961 15.134 311.999 16.683C311.317 17.7694 310.796 19.1373 310.655 20.2036C309.272 20.626 308.31 20.9278 308.29 20.9479C307.588 21.1692 307.568 21.1893 307.488 21.8532C307.427 22.3562 305.583 36.5189 305.583 36.5189L320.74 39.1543V17.1256C320.619 17.1256 320.559 17.1457 320.519 17.1457ZM317.011 18.2321C316.209 18.4735 315.327 18.7551 314.464 19.0166C314.705 18.0711 315.186 17.1256 315.748 16.5019C315.968 16.2807 316.269 16.0191 316.61 15.8582C316.95 16.5824 317.031 17.5682 317.011 18.2321ZM315.367 15.0535C315.647 15.0535 315.888 15.1138 316.088 15.2345C315.768 15.3955 315.447 15.657 315.146 15.9588C314.384 16.7836 313.803 18.0711 313.562 19.2983C312.841 19.5196 312.119 19.7409 311.457 19.9421C311.898 18.0108 313.522 15.0937 315.367 15.0535ZM313.041 26.1181C313.121 27.4057 316.509 27.6873 316.71 30.7251C316.85 33.1191 315.447 34.7486 313.422 34.8693C310.976 35.0302 309.633 33.5818 309.633 33.5818L310.154 31.3688C310.154 31.3688 311.497 32.3948 312.58 32.3144C313.282 32.2741 313.542 31.6907 313.522 31.2884C313.422 29.5985 310.655 29.6991 310.475 26.9228C310.314 24.5892 311.838 22.2355 315.206 22.0142C316.509 21.9337 317.171 22.2556 317.171 22.2556L316.409 25.1525C316.409 25.1525 315.547 24.7501 314.525 24.8306C313.041 24.9312 313.021 25.8767 313.041 26.1181ZM317.813 17.9906C317.813 17.3871 317.732 16.5221 317.452 15.7978C318.374 15.9789 318.815 17.0049 319.015 17.6285C318.655 17.7291 318.254 17.8498 317.813 17.9906Z" fill="white"/>
<path d="M321.202 39.1135L327.497 37.5444C327.497 37.5444 324.79 19.177 324.77 19.0563C324.75 18.9356 324.65 18.8552 324.55 18.8552C324.45 18.8552 322.685 18.8149 322.685 18.8149C322.685 18.8149 321.603 17.7688 321.202 17.3665V39.1135Z" fill="white"/>
</g>
<defs>
<clipPath id="clip0_412_4575">
<rect width="89.4764" height="32.4352" fill="white" transform="translate(166.68 75.0051)"/>
</clipPath>
<clipPath id="clip1_412_4575">
<rect width="89.4764" height="28.0359" fill="white" transform="translate(305.523 75.8391)"/>
</clipPath>
<clipPath id="clip2_412_4575">
<rect width="124.533" height="53.5492" fill="white"/>
</clipPath>
<clipPath id="clip3_412_4575">
<rect width="89.4764" height="25.6499" fill="white" transform="translate(305.523 14.168)"/>
</clipPath>
</defs>
</svg>