<?xml version="1.0" standalone="no"?>
<!DOCTYPE svg PUBLIC "-//W3C//DTD SVG 20010904//EN"
 "http://www.w3.org/TR/2001/REC-SVG-20010904/DTD/svg10.dtd">
<svg version="1.0" xmlns="http://www.w3.org/2000/svg"
 width="128.000000pt" height="128.000000pt" viewBox="0 0 128.000000 128.000000"
 preserveAspectRatio="xMidYMid meet">

<g transform="translate(0.000000,128.000000) scale(0.100000,-0.100000)"
fill="#027056" stroke="none">
<path d="M434 1266 c-50 -22 -74 -61 -74 -120 -1 -50 -2 -53 -84 -138 -71 -75
-89 -88 -115 -88 -99 0 -154 -107 -98 -191 81 -121 269 -18 213 116 l-16 38
72 77 73 77 50 -4 c28 -3 61 0 75 5 22 8 33 3 85 -41 57 -47 60 -52 61 -96 2
-103 89 -158 180 -115 43 20 64 59 64 116 1 41 3 45 63 88 58 42 66 45 125 45
61 0 65 2 98 37 28 31 34 45 34 83 0 37 -6 52 -33 81 -85 93 -232 20 -213
-105 6 -35 4 -38 -58 -83 -61 -45 -65 -46 -100 -36 -26 8 -46 8 -73 0 -35 -11
-38 -10 -97 40 -57 47 -61 54 -62 94 -3 94 -91 155 -170 120z m84 -78 c26 -26
0 -88 -36 -88 -22 0 -52 30 -52 51 0 40 60 65 88 37z m643 -9 c14 -27 -1 -64
-30 -72 -44 -11 -81 49 -49 81 20 20 66 14 79 -9z m-321 -258 c16 -31 12 -49
-15 -67 -23 -15 -27 -15 -50 0 -27 18 -33 54 -13 74 19 19 66 15 78 -7z m-646
-87 c49 -48 -15 -113 -66 -67 -22 20 -23 32 -2 61 18 26 46 28 68 6z"/>
<path d="M1084 788 c-41 -10 -80 -50 -88 -89 -3 -18 -6 -182 -6 -365 l0 -334
125 0 125 0 0 346 c0 295 -2 351 -16 379 -26 55 -79 79 -140 63z m64 -80 c9
-9 12 -94 12 -320 l0 -308 -45 0 -45 0 0 308 c0 324 1 332 45 332 12 0 26 -5
33 -12z"/>
<path d="M443 689 c-17 -5 -43 -23 -57 -40 l-26 -31 0 -309 0 -309 120 0 120
0 0 303 c0 281 -1 304 -20 334 -29 49 -80 68 -137 52z m71 -91 c14 -19 16 -62
16 -270 l0 -248 -50 0 -50 0 0 254 c0 218 2 257 16 270 22 22 50 20 68 -6z"/>
<path d="M744 475 c-59 -30 -64 -51 -64 -274 l0 -201 121 0 120 0 -3 210 -3
210 -31 31 c-38 37 -94 47 -140 24z m96 -84 c5 -11 10 -84 10 -165 l0 -146
-50 0 -50 0 0 146 c0 81 5 154 10 165 7 12 21 19 40 19 19 0 33 -7 40 -19z"/>
<path d="M120 367 c-19 -7 -44 -27 -57 -46 -21 -31 -23 -45 -23 -177 l0 -144
126 0 126 0 -3 143 c-3 115 -8 148 -22 170 -35 53 -91 74 -147 54z m80 -86 c5
-11 10 -60 10 -110 l0 -91 -45 0 -45 0 0 98 c0 63 4 102 12 110 18 18 56 14
68 -7z"/>
</g>
</svg>
