<?xml version="1.0" standalone="no"?>
<!DOCTYPE svg PUBLIC "-//W3C//DTD SVG 20010904//EN"
 "http://www.w3.org/TR/2001/REC-SVG-20010904/DTD/svg10.dtd">
<svg version="1.0" xmlns="http://www.w3.org/2000/svg"
 width="128.000000pt" height="128.000000pt" viewBox="0 0 128.000000 128.000000"
 preserveAspectRatio="xMidYMid meet">

<g transform="translate(0.000000,128.000000) scale(0.100000,-0.100000)"
fill="#027056" stroke="none">
<path d="M862 1268 c-16 -21 -31 -201 -18 -215 23 -25 37 4 47 101 6 53 8 103
5 111 -7 18 -20 19 -34 3z"/>
<path d="M452 1094 c-13 -9 -68 -106 -127 -224 -104 -208 -105 -209 -163 -249
-67 -45 -109 -91 -118 -127 -17 -68 24 -157 88 -190 30 -16 110 -16 148 0 11
4 41 -32 109 -134 107 -158 135 -180 197 -160 19 7 42 23 51 37 32 48 22 84
-52 195 -39 56 -78 114 -88 129 l-17 26 177 13 c98 7 194 18 213 24 110 35 85
252 -49 443 -124 175 -290 273 -369 217z m136 -60 c61 -30 170 -144 222 -230
88 -147 104 -294 35 -326 -21 -9 -34 -6 -89 21 -150 74 -306 314 -306 472 0
91 43 111 138 63z m-178 -151 c1 -29 54 -145 95 -209 21 -32 73 -93 116 -135
l77 -76 -140 -12 c-99 -8 -144 -8 -153 -1 -7 6 -40 53 -74 104 l-62 94 63 126
c60 122 78 146 78 109z m-57 -450 c5 -7 -14 -27 -49 -52 -87 -62 -161 -55
-199 19 -34 65 -12 115 78 175 l50 34 57 -82 c31 -45 59 -87 63 -94z m166
-182 c70 -105 91 -145 86 -160 -8 -26 -40 -44 -64 -36 -18 5 -201 264 -201
283 0 11 59 52 76 52 6 0 53 -63 103 -139z"/>
<path d="M570 857 c-14 -7 -25 -21 -25 -32 0 -21 3 -21 68 -8 35 7 71 -11 86
-44 17 -37 13 -59 -15 -92 -42 -50 -11 -86 34 -38 44 47 52 103 24 156 -32 60
-114 88 -172 58z"/>
<path d="M1048 1029 c-85 -57 -105 -83 -74 -95 19 -7 201 116 201 136 0 31
-43 17 -127 -41z"/>
<path d="M1003 804 c-9 -25 8 -33 118 -53 90 -17 106 -18 119 -5 23 23 2 32
-115 54 -60 11 -110 20 -112 20 -2 0 -6 -7 -10 -16z"/>
</g>
</svg>
