<?xml version="1.0" standalone="no"?>
<!DOCTYPE svg PUBLIC "-//W3C//DTD SVG 20010904//EN"
 "http://www.w3.org/TR/2001/REC-SVG-20010904/DTD/svg10.dtd">
<svg version="1.0" xmlns="http://www.w3.org/2000/svg"
 width="104.000000pt" height="69.000000pt" viewBox="0 0 104.000000 69.000000"
 preserveAspectRatio="xMidYMid meet">

<g transform="translate(0.000000,69.000000) scale(0.100000,-0.100000)"
fill="#027056" stroke="none">
<path d="M232 677 c-93 -29 -187 -167 -217 -316 -44 -214 27 -362 173 -361 93
1 160 65 269 256 32 57 60 103 63 103 3 1 34 -49 70 -111 104 -178 179 -248
264 -248 70 0 121 34 159 105 31 58 30 231 -2 325 -42 122 -106 205 -185 241
-83 38 -162 15 -244 -71 l-50 -52 -42 46 c-76 82 -169 112 -258 83z m573 -97
c70 -43 122 -162 132 -301 7 -97 -7 -142 -49 -160 -58 -24 -96 15 -227 231
-76 126 -78 135 -38 180 64 72 121 88 182 50z m-462 -14 c18 -7 54 -36 79 -65
l47 -52 -77 -121 c-130 -205 -189 -252 -247 -194 -49 49 -39 207 20 329 31 62
45 78 90 101 37 19 47 20 88 2z"/>
</g>
</svg>
