<?xml version="1.0" standalone="no"?>
<!DOCTYPE svg PUBLIC "-//W3C//DTD SVG 20010904//EN"
 "http://www.w3.org/TR/2001/REC-SVG-20010904/DTD/svg10.dtd">
<svg version="1.0" xmlns="http://www.w3.org/2000/svg"
 width="69.000000pt" height="69.000000pt" viewBox="0 0 69.000000 69.000000"
 preserveAspectRatio="xMidYMid meet">

<g transform="translate(0.000000,69.000000) scale(0.100000,-0.100000)"
fill="#027056" stroke="none">
<path d="M253 670 c-35 -21 -78 -80 -88 -122 -5 -21 -16 -28 -50 -37 -24 -6
-46 -15 -49 -20 -6 -9 -67 -413 -63 -417 4 -4 376 -64 396 -64 16 0 21 8 24
38 4 37 4 37 5 -7 l2 -43 33 6 c17 4 73 14 122 23 50 9 92 17 93 19 2 1 -15
118 -39 258 l-42 256 -30 0 c-16 0 -41 9 -55 21 l-27 21 -6 -34 -6 -33 -2 37
c-1 26 -5 36 -14 32 -7 -2 -19 6 -26 20 -7 13 -25 29 -40 36 -14 7 -34 16 -43
21 -28 14 -60 10 -95 -11z m67 -8 c0 -4 -9 -13 -21 -20 -11 -7 -29 -33 -40
-56 -13 -31 -26 -45 -44 -48 -31 -6 -31 4 0 57 26 45 105 96 105 67z m32 -52
c5 -35 5 -35 -39 -45 -40 -8 -42 3 -7 44 32 39 41 39 46 1z m46 18 c16 -16 15
-38 -2 -38 -7 0 -16 11 -18 25 -6 27 1 32 20 13z m69 -175 c-2 -16 -4 -3 -4
27 0 30 2 43 4 28 2 -16 2 -40 0 -55z m-111 -19 c-3 -9 -9 -27 -12 -41 -6 -22
-10 -24 -41 -18 -42 8 -73 -1 -73 -22 0 -8 23 -37 51 -63 50 -47 52 -50 46
-90 -7 -51 -29 -77 -77 -91 -41 -12 -109 1 -130 26 -18 22 -4 69 18 59 9 -4
32 -9 49 -12 25 -3 34 0 40 13 4 13 -5 28 -35 54 -50 43 -61 81 -35 130 25 47
74 71 146 71 50 0 58 -2 53 -16z m101 -91 c-2 -16 -4 -3 -4 27 0 30 2 43 4 28
2 -16 2 -40 0 -55z m-10 -110 c-2 -16 -4 -3 -4 27 0 30 2 43 4 28 2 -16 2 -40
0 -55z m-10 -110 c-2 -16 -4 -5 -4 22 0 28 2 40 4 28 2 -13 2 -35 0 -50z"/>
</g>
</svg>
