<svg width="20" height="21" viewBox="0 0 20 21" fill="none" xmlns="http://www.w3.org/2000/svg">
<path d="M15.7061 10.0609C15.4293 10.2593 15.0957 10.3903 14.7727 10.5143M15.7061 10.0609C16.0517 9.81068 16.0217 9.39948 15.6437 9.21088M15.7061 10.0609L15.4129 9.65588C15.4131 9.65569 15.4134 9.65551 15.4136 9.65533C15.1973 9.81005 14.9244 9.92045 14.5935 10.0475L14.5926 10.0479C14.4032 10.121 14.2218 10.2016 14.0714 10.3015C13.9176 10.4035 13.7616 10.5484 13.6767 10.7622C13.5908 10.9784 13.6063 11.1926 13.6537 11.3761C13.6995 11.5537 13.7839 11.7359 13.8806 11.9171L13.8807 11.9173C14.4912 13.0603 15.364 13.9794 16.6896 14.3779M15.7061 10.0609L15.416 9.6561L16.8725 14.2975M14.7727 10.5143L16.9559 14.259L16.9559 14.259L16.9527 14.2605M14.7727 10.5143C14.0539 10.7919 13.9583 11.0009 14.3217 11.6817L14.7727 10.5143ZM15.6437 9.21088C15.4259 9.10228 15.1369 9.10488 14.8811 9.11128C14.7813 9.1132 14.6834 9.15463 14.5844 9.1965C14.5187 9.22431 14.4524 9.25232 14.3849 9.26908L14.5054 9.75435C14.3589 9.79076 14.0731 9.8396 13.8201 9.66895C13.529 9.47265 13.4969 9.14661 13.5129 8.93465L13.5131 8.93241C13.538 8.62139 13.5565 8.31264 13.5754 7.99769C13.5833 7.86578 13.5913 7.73278 13.5998 7.59807C13.5687 6.87934 13.5099 6.28197 13.2088 5.74201L13.2088 5.74191C12.3042 4.11907 10.268 3.58139 8.50483 4.26604C7.30766 4.73311 6.58184 5.57338 6.47826 6.8505L6.47825 6.8506C6.43209 7.41835 6.45235 7.99058 6.47373 8.59444C6.47766 8.70564 6.48164 8.8179 6.48524 8.93141L6.48525 8.93165C6.49168 9.13714 6.45739 9.44889 6.19152 9.64988C5.94074 9.83947 5.64759 9.80115 5.49019 9.76731L5.48773 9.76678C5.3287 9.73174 5.14395 9.66705 5.00522 9.61848C4.95174 9.59975 4.9051 9.58342 4.86941 9.57211L4.86796 9.57165C4.82092 9.55658 4.74688 9.55645 4.67363 9.58479C4.60493 9.61137 4.58367 9.64344 4.58115 9.64723C4.5809 9.64762 4.58084 9.64771 4.58093 9.64749L4.58022 9.64913C4.57877 9.65247 4.57749 9.65554 4.57639 9.65835C4.5827 9.66481 4.59094 9.67258 4.60155 9.68164C4.63265 9.70816 4.67535 9.73831 4.73346 9.77417L4.7341 9.77456C4.8291 9.83338 4.93938 9.87981 5.0958 9.94567L5.09908 9.94706C5.17126 9.97719 5.2397 10.0022 5.31886 10.0311C5.35617 10.0447 5.39586 10.0592 5.43944 10.0755C5.56446 10.1223 5.70944 10.1801 5.8523 10.2588L5.85546 10.2606L5.85546 10.2606C6.03933 10.3637 6.23293 10.5267 6.33179 10.777C6.4352 11.0388 6.40107 11.3091 6.29249 11.5498L6.29237 11.5501C5.69745 12.8673 4.78519 13.9328 3.27862 14.3837C3.61214 14.5283 3.96071 14.6358 4.31806 14.7042C4.51859 14.7423 4.72508 14.8197 4.88889 14.9913C5.04673 15.1566 5.11013 15.3537 5.14618 15.5056L5.14647 15.5068C5.16848 15.6006 5.18648 15.6671 5.20173 15.7147C5.24662 15.709 5.30752 15.6987 5.39086 15.6816C6.40303 15.4738 7.3202 15.6535 8.18365 16.2826C8.90612 16.8071 9.47222 17.0221 9.99354 17.0232C10.5146 17.0243 11.0811 16.8118 11.8046 16.2884L11.805 16.2881C12.6814 15.6554 13.6084 15.473 14.6331 15.6795M15.6437 9.21088L15.4275 9.64447L15.4273 9.64467L15.6437 9.21088ZM14.6331 15.6795C14.6332 15.6795 14.6332 15.6795 14.6333 15.6795L14.5345 16.1697L14.6327 15.6794C14.6328 15.6794 14.633 15.6795 14.6331 15.6795ZM14.6331 15.6795C14.7082 15.6945 14.7638 15.7037 14.8052 15.7088M14.8052 15.7088C14.7963 15.737 14.7884 15.7582 14.7814 15.7741C14.7655 15.8102 14.7725 15.7764 14.8233 15.7427C14.8615 15.7175 14.8915 15.714 14.8917 15.714C14.8917 15.7139 14.8878 15.7144 14.8789 15.7144C14.8614 15.7144 14.8377 15.7128 14.8052 15.7088ZM14.8052 15.7088C14.8189 15.6652 14.835 15.6048 14.8541 15.5207L15.3417 15.6313L14.8538 15.5221C14.8938 15.3431 14.9663 15.1365 15.14 14.9695C15.3104 14.8056 15.5184 14.7378 15.7007 14.7M15.7007 14.7C15.7001 14.7002 15.6994 14.7003 15.6988 14.7004L15.8039 15.1893L15.7031 14.6996C15.7023 14.6997 15.7015 14.6999 15.7007 14.7ZM15.7007 14.7C16.0307 14.6289 16.3628 14.5164 16.6896 14.3779M16.6896 14.3779C16.7692 14.4018 16.8505 14.4239 16.9335 14.444C16.9357 14.4449 16.9393 14.4466 16.9443 14.4491C16.959 14.4564 16.9748 14.4661 16.9874 14.4753C16.9944 14.4804 16.9975 14.4831 16.9974 14.4831C16.9973 14.483 16.9929 14.479 16.9855 14.4703C16.9798 14.4635 16.9652 14.4456 16.9497 14.4169C16.9493 14.4161 16.9488 14.4152 16.9484 14.4144C16.9459 14.4097 16.9434 14.4048 16.9409 14.3996C16.9304 14.3775 16.9146 14.339 16.9059 14.2876C16.9184 14.2788 16.9339 14.2693 16.9527 14.2605M16.6896 14.3779C16.7508 14.352 16.8117 14.3251 16.8725 14.2975M16.9527 14.2605C16.9368 14.2679 16.9209 14.2753 16.905 14.2826M16.9527 14.2605L16.905 14.2826M16.8725 14.2975C16.8787 14.2808 16.8847 14.2615 16.8898 14.2408C16.8965 14.2134 16.8999 14.1902 16.9012 14.175M16.8725 14.2975L16.9012 14.175M16.905 14.2826C16.9001 14.2511 16.8979 14.215 16.9012 14.175M16.905 14.2826L16.9013 14.1739L16.9012 14.175M14.8985 9.611C15.1715 9.60434 15.3263 9.61475 15.4139 9.65514L14.8985 9.611ZM4.56915 9.68176C4.56914 9.68177 4.56917 9.68153 4.56925 9.68104L4.56915 9.68176Z" fill="#FFFB00" stroke="black"/>
</svg>
