<svg xmlns="http://www.w3.org/2000/svg" width="56" height="56" viewBox="0 0 56 56" fill="none">
<rect width="56" height="56" rx="12" fill="#FAFAFA" />
<rect x="0.590909" y="0.590909" width="54.8182" height="54.8182" rx="11.4091" stroke="black" stroke-opacity="0.04" stroke-width="1.18182" />
<g clip-path="url(#clip0_412_5914)">
    <path d="M35.5 19.75H20.5C20.0858 19.75 19.75 20.0858 19.75 20.5V35.5C19.75 35.9142 20.0858 36.25 20.5 36.25H35.5C35.9142 36.25 36.25 35.9142 36.25 35.5V20.5C36.25 20.0858 35.9142 19.75 35.5 19.75Z" stroke="#C0C6C4" stroke-width="1.5" stroke-linecap="round" stroke-linejoin="round" />
    <path d="M25 26.5C25.8284 26.5 26.5 25.8284 26.5 25C26.5 24.1716 25.8284 23.5 25 23.5C24.1716 23.5 23.5 24.1716 23.5 25C23.5 25.8284 24.1716 26.5 25 26.5Z" stroke="#C0C6C4" stroke-width="1.5" stroke-linecap="round" stroke-linejoin="round" />
    <path d="M21.3147 36.2506L31.5944 25.97C31.664 25.9002 31.7468 25.8449 31.8378 25.8072C31.9289 25.7694 32.0264 25.75 32.125 25.75C32.2236 25.75 32.3212 25.7694 32.4122 25.8072C32.5033 25.8449 32.586 25.9002 32.6556 25.97L36.25 29.5653" stroke="#C0C6C4" stroke-width="1.5" stroke-linecap="round" stroke-linejoin="round" />
</g>
<defs>
    <clipPath id="clip0_412_5914">
        <rect width="24" height="24" fill="white" transform="translate(16 16)" />
    </clipPath>
</defs>
</svg>