<?xml version="1.0" standalone="no"?>
<!DOCTYPE svg PUBLIC "-//W3C//DTD SVG 20010904//EN"
 "http://www.w3.org/TR/2001/REC-SVG-20010904/DTD/svg10.dtd">
<svg version="1.0" xmlns="http://www.w3.org/2000/svg" viewBox="0 0 379.000000 115.000000">

<g transform="translate(0.000000,115.000000) scale(0.100000,-0.100000)"
fill="#190041" stroke="none">
<path d="M1520 771 l0 -120 -46 26 c-59 33 -150 35 -211 5 -55 -29 -118 -102
-133 -157 -27 -98 7 -217 79 -278 77 -65 203 -75 282 -23 l39 26 0 -25 c0 -24
3 -25 55 -25 l55 0 0 345 0 345 -60 0 -60 0 0 -119z m-60 -199 c58 -43 76
-132 40 -202 -27 -52 -69 -74 -134 -67 -41 4 -55 11 -82 40 -75 81 -40 223 61
250 33 9 88 -1 115 -21z"/>
<path d="M2200 545 l0 -345 55 0 55 0 0 345 0 345 -55 0 -55 0 0 -345z"/>
<path d="M638 600 l-3 -279 -234 269 c-128 149 -236 270 -238 270 -3 0 -37
-28 -77 -62 -39 -34 -74 -65 -79 -68 -4 -4 30 -49 75 -101 198 -227 195 -223
161 -205 -43 21 -91 20 -130 -4 -88 -53 -82 -190 10 -233 43 -21 67 -21 112
-3 51 22 76 69 73 135 l-3 53 55 -63 c30 -35 69 -79 86 -98 l32 -35 47 39 c26
22 62 53 81 68 l34 29 0 -66 0 -66 100 0 100 0 0 350 0 350 -100 0 -100 0 -2
-280z"/>
<path d="M2907 803 c-4 -3 -7 -19 -7 -34 0 -43 -9 -57 -46 -69 -33 -11 -34
-14 -34 -61 l0 -49 39 0 38 0 5 -139 c6 -156 17 -187 78 -228 25 -18 47 -23
96 -23 l64 0 0 50 0 50 -34 0 c-19 0 -44 9 -57 19 -23 18 -24 27 -27 145 l-4
126 106 0 106 0 0 -142 c0 -125 3 -147 20 -176 31 -50 75 -72 148 -72 l62 0 0
50 0 50 -34 0 c-19 0 -44 9 -57 19 -23 18 -24 25 -24 143 l0 123 58 3 57 3 0
49 0 49 -57 3 -58 3 -3 58 -3 57 -54 0 c-52 0 -55 -2 -55 -24 0 -72 -45 -100
-150 -94 l-55 3 -3 58 -3 57 -53 0 c-29 0 -56 -3 -59 -7z"/>
<path d="M1880 699 c-65 -13 -130 -57 -164 -113 -58 -93 -46 -230 27 -313 51
-57 100 -78 192 -78 67 0 87 4 123 25 44 25 106 96 96 111 -3 5 -26 18 -51 29
-43 19 -46 19 -59 3 -7 -10 -14 -20 -14 -23 -1 -15 -62 -40 -97 -40 -83 0
-139 70 -131 162 12 125 143 179 224 92 18 -19 35 -34 37 -34 2 0 25 9 51 20
l46 21 -15 28 c-42 83 -158 131 -265 110z"/>
<path d="M3675 688 c-11 -6 -30 -20 -42 -31 l-23 -20 0 26 c0 26 -2 27 -55 27
l-55 0 0 -245 0 -245 60 0 60 0 0 166 0 166 28 28 c20 19 44 31 75 35 l47 7 0
49 0 49 -37 0 c-21 0 -47 -6 -58 -12z"/>
<path d="M2360 513 c0 -152 3 -184 19 -219 26 -57 80 -96 141 -102 61 -6 86 1
133 32 l37 25 0 -24 c0 -24 3 -25 55 -25 l55 0 0 245 0 245 -60 0 -60 0 0
-155 c0 -201 -15 -235 -105 -235 -27 0 -44 8 -66 29 l-29 29 0 166 0 166 -60
0 -60 0 0 -177z"/>
</g>
</svg>
